<?xml version="1.0" encoding="utf-8"?>
<!-- Generator: Adobe Illustrator 21.0.0, SVG Export Plug-In . SVG Version: 6.00 Build 0)  -->
<svg version="1.1" id="Laag_1" xmlns="http://www.w3.org/2000/svg" xmlns:xlink="http://www.w3.org/1999/xlink" x="0px" y="0px"
	 viewBox="0 0 363.6 200.6" style="enable-background:new 0 0 363.6 200.6;" xml:space="preserve">
<style type="text/css">
	.st0{fill:#6C4121;}
</style>
<path class="st0" d="M104.8,90.4C144.7,99,181.4,18,140.6,18c-8.4,0-19.1,6.9-28.1,17.1c-33.4,37.7-39,121.6-87.8,121.6
	c-13.5,0-28-12.1-24-36.8c3-19.1,15.4-32.4,29.1-32.4c14.2,0,17,16,17,16c16.6-16.7,29.5,12.4,67.6,52.2
	c10.4,10.8,24.5,22.6,38.6,22.5c11.5-0.1,22.5-3.8,30.9-19.6c2.3-5.6,11.6-4.8,1.5,18.3c-7.2,16.7-19.3,23.7-32.5,23.7
	c-43.7,0-76.7-85.1-93.7-92c-11.8-4.8-22.1,22.8-22.1,22.8c2.7-44.4-18.8-36.3-25.9-19.6c-6.4,15.2-3.1,31.3,16.6,31.3
	c33.6,0,39.1-53.9,72.9-109.1c28.6-46.7,65.2-40.2,68.5-11c3.5,31.3-16.8,53.1-27.4,64.2s-21.2,15.6-31.6,15.6c-6,0-6.9-3.7-7.2-5.6
	C102.7,94.5,104.8,90.4,104.8,90.4z"/>
<path class="st0" d="M179.8,128.1c1.5-3.7,2.2-7.8,2.2-12.1c0-2.9-0.7-5.6-2-8.3s-3.1-4.8-5.5-6.4c-2.2-1.4-4.7-2.5-7.4-3.1
	s-5.5-0.9-8.1-0.9c-4.1,0-8.1,0.7-11.9,2.1c-3.8,1.4-7.1,3.6-10,6.6c-2.6,2.8-4.6,6-6,9.8c-1.5,3.8-2.2,7.5-2.2,11.2
	c0,3.4,0.6,6.3,1.8,8.7s2.9,4.4,5,6s4.6,2.7,7.3,3.5s5.7,1.1,8.8,1.1c4.4,0,8.5-0.8,12.2-2.4c3.7-1.6,6.9-3.7,9.5-6.4
	S178.3,131.8,179.8,128.1 M165.9,112.1c0,1.5-0.1,3.1-0.3,4.8c-0.2,1.7-0.4,3.5-0.8,5.2s-0.7,3.5-1.1,5.1c-0.4,1.6-0.9,3.1-1.4,4.5
	c-1.1,2.7-2.4,4.9-3.9,6.8c-1.6,1.8-3.7,2.7-6.4,2.7c-2.6,0-4.5-1-5.5-2.9c-1.1-1.9-1.6-4.3-1.6-7c0-1.4,0.1-2.9,0.3-4.6
	s0.5-3.5,0.8-5.3c0.3-1.8,0.7-3.5,1.1-5.2c0.4-1.6,0.9-3.1,1.4-4.4c1.1-2.8,2.3-5.1,3.8-6.9c1.5-1.8,3.6-2.8,6.3-2.8
	c2.7,0,4.6,0.9,5.6,2.8C165.4,106.9,165.9,109.3,165.9,112.1"/>
<path class="st0" d="M281.1,128.2c-4.5-0.6-5.5,7.9-16.5,9.7c-0.1,0-0.2,0-0.3,0c-1,0-1.8-0.3-2.4-0.9c-0.6-0.6-0.9-1.3-0.9-2.1
	v-0.5l1.5-9.2c0.1-0.4,0.2-0.8,0.2-1.2l0,0l2.9-17.3h12.7l1.5-8.5H267l2.5-14.1H261c-1.2,4.1-3.1,7.6-5.6,10.3
	c-2.5,2.8-5.9,4.7-10.3,5.8l-1.2,6.6h6.6l-5.2,30.4c-0.1,0.3-0.1,0.8-0.1,1.3c0,1.4,0.4,2.6,1.2,3.6s1.8,1.8,3,2.5
	c0.2,0.1,0.4,0.2,0.7,0.3c0.3,0.2,0.7,0.4,1.1,0.5c0.1,0,0.2,0.1,0.3,0.1c0.6,0.2,1.2,0.4,1.9,0.5c0,0,0,0,0,0c0,0,0,0,0.1,0
	c0.6,0.1,1.2,0.2,1.8,0.3c0.4,0,0.8,0.1,1.2,0.1c0.2,0,0.3,0,0.5,0c0.2,0,0.5,0,0.8,0c0.1,0,0.2,0,0.4,0c1.1,0,2.3-0.1,3.6-0.1
	C277.1,143.8,285.1,129.1,281.1,128.2"/>
<path class="st0" d="M315.1,82c0-1.9-0.7-3.6-2-5c-1.3-1.4-3-2.1-5-2.1c-1.4,0-2.7,0.3-4.1,0.8c-1.3,0.5-2.5,1.3-3.6,2.2
	c-1,0.9-1.9,2-2.5,3.3s-1,2.6-1,3.9c0,2.2,0.7,4,2.1,5.5s3.1,2.2,5.3,2.2c1.4,0,2.8-0.3,4.1-0.9c1.3-0.6,2.5-1.4,3.4-2.4
	s1.8-2.2,2.3-3.5C314.8,84.8,315.1,83.5,315.1,82 M291.7,99.8l-1.3,6.8c1.6,0.2,2.2,0.5,2.8,0.9c1,0.6,1.5,1.5,1.1,4.2l-0.2,1.7
	l-4.6,26.8c-1.1,5.3-3.5,11.5-5,13.8c-1.8,2.8-4.6,6.1-8.7,6.1c-4.4,0-6.5-1-8.4-3.2c-1.6-1.9-2.7-4.6-4.8-4.4c-2,0.2-3,3.9-0.7,8.4
	c2.4,4.7,9.5,8.9,16.4,8.6c5-0.2,9-1.3,12.1-3.2s5.6-4.2,7.4-6.9c1.8-2.7,3.3-5.9,4.4-9.1c1.1-3.3,2.2-7.4,2.7-10.4l6.1-36.5
	l0.9-5.2h-10.7C297.4,99.2,291.7,99.8,291.7,99.8"/>
<path class="st0" d="M206.4,113c0.8-1.9,1.8-3.6,3-5.2s2.5-2.9,4-4c1.5-1,3.1-1.6,4.8-1.6c1.4,0,2.6,0.4,3.7,1.3
	c1.1,0.8,1.6,2.2,1.6,3.9c0,2-0.6,3.7-1.9,5.1s-2.8,2.5-4.7,3.4s-3.8,1.5-5.8,1.9s-3.8,0.6-5.3,0.6h-1.1
	C205.1,116.7,205.6,114.9,206.4,113 M205.9,124.9c3,0,6.3-0.3,9.9-0.8s6.8-1.3,9.6-2.1c1.6-0.5,3.1-1.1,4.5-1.9s2.8-1.6,3.9-2.7
	c1.1-1.1,2-2.3,2.7-3.6s1-3,1-4.8c0-2.2-0.5-4-1.6-5.5s-2.4-2.7-4.1-3.6c-1.6-0.9-3.5-1.6-5.4-1.9c-2-0.4-3.9-0.6-5.7-0.6
	c-4.1,0-8.2,0.7-12.2,2.2c-4,1.4-7.6,3.4-10.8,6c-3.2,2.6-5.7,5.6-7.7,9.2c-1.9,3.6-2.9,7.6-2.9,11.9c0,2,0.3,3.8,0.7,5.5
	c0,0.1,0.1,0.3,0.1,0.4c0.1,0.4,0.2,0.8,0.4,1.1c0.2,0.4,0.3,0.8,0.5,1.3c0,0.1,0,0.1,0.1,0.1c0,0,0,0,0,0.1
	c3.5,7.3,12,12.9,25.6,11c15.5-2.4,23.5-17.1,19.5-18.1c-4.9-0.7-5.7,8.6-19.2,10c-2.8,0.4-5.2,0.3-7-0.4c-0.7-0.3-1.4-0.7-2-1.2
	c-1.8-1.5-2.6-3.6-2.6-6.3l0.2-5.2L205.9,124.9L205.9,124.9z"/>
<path class="st0" d="M332.6,113c0.8-1.9,1.8-3.6,3-5.2c1.2-1.6,2.5-2.9,4-4c1.5-1,3.1-1.6,4.8-1.6c1.4,0,2.6,0.4,3.7,1.3
	c1.1,0.8,1.6,2.2,1.6,3.9c0,2-0.6,3.7-1.9,5.1s-2.8,2.5-4.7,3.4s-3.8,1.5-5.8,1.9s-3.8,0.6-5.3,0.6H331
	C331.2,116.7,331.8,114.9,332.6,113 M332.1,124.9c3,0,6.3-0.3,9.9-0.8s6.8-1.3,9.6-2.1c1.6-0.5,3.1-1.1,4.5-1.9s2.8-1.6,3.9-2.7
	c1.1-1.1,2-2.3,2.7-3.6s1-3,1-4.8c0-2.2-0.5-4-1.6-5.5s-2.4-2.7-4.1-3.6c-1.6-0.9-3.5-1.6-5.4-1.9c-2-0.4-3.9-0.6-5.7-0.6
	c-4.1,0-8.2,0.7-12.2,2.2c-4,1.4-7.6,3.4-10.8,6c-3.2,2.6-5.7,5.6-7.7,9.2c-1.9,3.6-2.9,7.6-2.9,11.9c0,2,0.3,3.8,0.7,5.5
	c0,0.1,0.1,0.3,0.1,0.4c0.1,0.4,0.2,0.8,0.4,1.1c0.2,0.4,0.3,0.8,0.5,1.3c0,0.1,0,0.1,0.1,0.1c0,0,0,0,0,0.1
	c3.5,7.3,12,12.9,25.6,11c15.5-2.4,23.5-17.1,19.5-18.1c-4.9-0.7-5.7,8.6-19.2,10c-2.8,0.4-5.2,0.3-7-0.4c-0.7-0.3-1.4-0.7-2-1.2
	c-1.8-1.5-2.6-3.6-2.6-6.3l0.2-5.2L332.1,124.9L332.1,124.9z"/>
</svg>
