<?xml version="1.0" encoding="UTF-8" standalone="no"?>
<svg
   xmlns:dc="http://purl.org/dc/elements/1.1/"
   xmlns:cc="http://creativecommons.org/ns#"
   xmlns:rdf="http://www.w3.org/1999/02/22-rdf-syntax-ns#"
   xmlns:svg="http://www.w3.org/2000/svg"
   xmlns="http://www.w3.org/2000/svg"
   viewBox="0 0 354.47867 245.33333"
   height="245.33333"
   width="354.47867"
   xml:space="preserve"
   id="svg2"
   version="1.1"><metadata
     id="metadata8"><rdf:RDF><cc:Work
         rdf:about=""><dc:format>image/svg+xml</dc:format><dc:type
           rdf:resource="http://purl.org/dc/dcmitype/StillImage" /></cc:Work></rdf:RDF></metadata><defs
     id="defs6"><clipPath
       id="clipPath18"
       clipPathUnits="userSpaceOnUse"><path
         id="path16"
         d="M 17.262,29.11 H 248.597 V 155.456 H 17.262 Z" /></clipPath></defs><g
     transform="matrix(1.3333333,0,0,-1.3333333,0,245.33333)"
     id="g10"><g
       id="g12"><g
         clip-path="url(#clipPath18)"
         id="g14"><g
           transform="translate(27.2568,114.1895)"
           id="g20"><path
             id="path22"
             style="fill:#1d1d1b;fill-opacity:1;fill-rule:nonzero;stroke:none"
             d="m 0,0 -0.122,-17.388 h -1.43 L -1.871,0 H -2.61 L -2.953,-17.388 H -3.843 -4.15 -4.381 L -4.694,0 H -5.366 L -5.725,-17.388 H -7.153 L -7.31,0 h -0.689 c -0.626,-4.034 -1.231,-11.856 -1.231,-15.866 0,-4.923 1.004,-4.864 3.92,-6.03 l -1.073,-30.743 c 0,-1.448 0.971,-2.638 2.233,-2.889 v -0.021 c 0.157,-0.031 0.318,-0.054 0.483,-0.054 1.495,0 2.72,1.332 2.72,2.964 l -1.077,30.743 c 2.918,1.166 3.92,1.107 3.92,6.03 0,4.01 -0.608,11.742 -1.247,15.866 z m 215.629,0.091 c -0.029,-0.013 -0.061,-0.017 -0.09,-0.032 -2.164,-1.114 -5.287,-5.882 -5.287,-19.226 0,-7.171 3.042,-11.493 3.871,-13.881 1.45,-4.18 -1.373,-14.656 -1.898,-19.533 -0.174,-1.621 1.223,-2.962 2.717,-2.962 0.239,0 0.467,0.044 0.687,0.107 v 0.013 c 1.164,0.335 2.032,1.473 2.032,2.842 v 51.127 c 0,1.175 -1.079,1.954 -2.032,1.545" /></g><g
           transform="translate(23.5903,120.291)"
           id="g24"><path
             id="path26"
             style="fill:none;stroke:#ffffff;stroke-width:1.05499995;stroke-linecap:butt;stroke-linejoin:miter;stroke-miterlimit:10;stroke-dasharray:none;stroke-opacity:1"
             d="M 0,0 V 28.833 H 218.678 V 0" /></g><g
           transform="translate(242.2681,52.7446)"
           id="g28"><path
             id="path30"
             style="fill:none;stroke:#ffffff;stroke-width:1.05499995;stroke-linecap:butt;stroke-linejoin:miter;stroke-miterlimit:10;stroke-dasharray:none;stroke-opacity:1"
             d="M 0,0 V -17.307 H -218.678 V 0" /></g><g
           transform="translate(45.2432,126.4619)"
           id="g32"><path
             id="path34"
             style="fill:#ffffff;fill-opacity:1;fill-rule:nonzero;stroke:none"
             d="m 0,0 c 2.934,0 5.032,1.51 5.032,4.026 v 0.056 c 0,2.403 -1.846,3.857 -5.004,3.857 h -6.04 V 0 Z M -8.219,9.98 H 0.194 C 2.6,9.98 4.527,9.253 5.758,8.022 6.708,7.074 7.268,5.703 7.268,4.165 V 4.109 c 0,-3.241 -2.236,-5.143 -5.312,-5.702 L 7.967,-9.587 H 5.254 l -5.674,7.604 h -5.592 v -7.604 h -2.207 z" /></g><g
           transform="translate(45.2432,126.4619)"
           id="g36"><path
             id="path38"
             style="fill:#1d1d1b;fill-opacity:1;fill-rule:nonzero;stroke:none"
             d="m 0,0 c 2.934,0 5.032,1.51 5.032,4.026 v 0.056 c 0,2.403 -1.846,3.857 -5.004,3.857 h -6.04 V 0 Z M -8.219,9.98 H 0.194 C 2.6,9.98 4.527,9.253 5.758,8.022 6.708,7.074 7.268,5.703 7.268,4.165 V 4.109 c 0,-3.241 -2.236,-5.143 -5.312,-5.702 L 7.967,-9.587 H 5.254 l -5.674,7.604 h -5.592 v -7.604 h -2.207 z" /></g><g
           transform="translate(45.2432,126.4619)"
           id="g40"><path
             id="path42"
             style="fill:none;stroke:#1d1d1b;stroke-width:1.05499995;stroke-linecap:butt;stroke-linejoin:miter;stroke-miterlimit:10;stroke-dasharray:none;stroke-opacity:1"
             d="m 0,0 c 2.934,0 5.032,1.51 5.032,4.026 v 0.056 c 0,2.403 -1.846,3.857 -5.004,3.857 h -6.04 V 0 Z M -8.219,9.98 H 0.194 C 2.6,9.98 4.527,9.253 5.758,8.022 6.708,7.074 7.268,5.703 7.268,4.165 V 4.109 c 0,-3.241 -2.236,-5.143 -5.312,-5.702 L 7.967,-9.587 H 5.254 l -5.674,7.604 h -5.592 v -7.604 h -2.207 z" /></g><g
           transform="translate(57.2314,136.4419)"
           id="g44"><path
             id="path46"
             style="fill:#ffffff;fill-opacity:1;fill-rule:nonzero;stroke:none"
             d="M 0,0 H 14.145 V -2.013 H 2.209 v -6.681 h 10.678 v -2.013 H 2.209 v -6.848 h 12.077 v -2.012 H 0 Z" /></g><g
           transform="translate(57.2314,136.4419)"
           id="g48"><path
             id="path50"
             style="fill:#1d1d1b;fill-opacity:1;fill-rule:nonzero;stroke:none"
             d="M 0,0 H 14.145 V -2.013 H 2.209 v -6.681 h 10.678 v -2.013 H 2.209 v -6.848 h 12.077 v -2.012 H 0 Z" /></g><g
           transform="translate(57.2314,136.4419)"
           id="g52"><path
             id="path54"
             style="fill:none;stroke:#1d1d1b;stroke-width:1.05499995;stroke-linecap:butt;stroke-linejoin:miter;stroke-miterlimit:10;stroke-dasharray:none;stroke-opacity:1"
             d="M 0,0 H 14.145 V -2.013 H 2.209 v -6.681 h 10.678 v -2.013 H 2.209 v -6.848 h 12.077 v -2.012 H 0 Z" /></g><g
           transform="translate(74.6719,119.7256)"
           id="g56"><path
             id="path58"
             style="fill:#ffffff;fill-opacity:1;fill-rule:nonzero;stroke:none"
             d="m 0,0 1.369,1.621 c 2.041,-1.845 3.998,-2.768 6.711,-2.768 2.627,0 4.359,1.398 4.359,3.326 v 0.056 c 0,1.819 -0.977,2.853 -5.086,3.719 -4.502,0.979 -6.571,2.431 -6.571,5.647 v 0.055 c 0,3.075 2.713,5.34 6.43,5.34 2.851,0 4.892,-0.81 6.877,-2.404 l -1.286,-1.705 c -1.817,1.482 -3.636,2.124 -5.647,2.124 -2.544,0 -4.164,-1.397 -4.164,-3.158 v -0.056 c 0,-1.845 1.004,-2.879 5.31,-3.802 4.361,-0.952 6.374,-2.544 6.374,-5.536 V 2.403 c 0,-3.354 -2.796,-5.534 -6.681,-5.534 C 4.892,-3.131 2.348,-2.096 0,0" /></g><g
           transform="translate(74.6719,119.7256)"
           id="g60"><path
             id="path62"
             style="fill:#1d1d1b;fill-opacity:1;fill-rule:nonzero;stroke:none"
             d="m 0,0 1.369,1.621 c 2.041,-1.845 3.998,-2.768 6.711,-2.768 2.627,0 4.359,1.398 4.359,3.326 v 0.056 c 0,1.819 -0.977,2.853 -5.086,3.719 -4.502,0.979 -6.571,2.431 -6.571,5.647 v 0.055 c 0,3.075 2.713,5.34 6.43,5.34 2.851,0 4.892,-0.81 6.877,-2.404 l -1.286,-1.705 c -1.817,1.482 -3.636,2.124 -5.647,2.124 -2.544,0 -4.164,-1.397 -4.164,-3.158 v -0.056 c 0,-1.845 1.004,-2.879 5.31,-3.802 4.361,-0.952 6.374,-2.544 6.374,-5.536 V 2.403 c 0,-3.354 -2.796,-5.534 -6.681,-5.534 C 4.892,-3.131 2.348,-2.096 0,0" /></g><g
           transform="translate(74.6719,119.7256)"
           id="g64"><path
             id="path66"
             style="fill:none;stroke:#1d1d1b;stroke-width:1.05499995;stroke-linecap:butt;stroke-linejoin:miter;stroke-miterlimit:10;stroke-dasharray:none;stroke-opacity:1"
             d="m 0,0 1.369,1.621 c 2.041,-1.845 3.998,-2.768 6.711,-2.768 2.627,0 4.359,1.398 4.359,3.326 v 0.056 c 0,1.819 -0.977,2.853 -5.086,3.719 -4.502,0.979 -6.571,2.431 -6.571,5.647 v 0.055 c 0,3.075 2.713,5.34 6.43,5.34 2.851,0 4.892,-0.81 6.877,-2.404 l -1.286,-1.705 c -1.817,1.482 -3.636,2.124 -5.647,2.124 -2.544,0 -4.164,-1.397 -4.164,-3.158 v -0.056 c 0,-1.845 1.004,-2.879 5.31,-3.802 4.361,-0.952 6.374,-2.544 6.374,-5.536 V 2.403 c 0,-3.354 -2.796,-5.534 -6.681,-5.534 C 4.892,-3.131 2.348,-2.096 0,0 Z" /></g><g
           transform="translate(98.5977,134.4014)"
           id="g68"><path
             id="path70"
             style="fill:#ffffff;fill-opacity:1;fill-rule:nonzero;stroke:none"
             d="M 0,0 H -6.57 V 2.041 H 8.805 V 0 H 2.235 V -17.527 H 0 Z" /></g><g
           transform="translate(98.5977,134.4014)"
           id="g72"><path
             id="path74"
             style="fill:#1d1d1b;fill-opacity:1;fill-rule:nonzero;stroke:none"
             d="M 0,0 H -6.57 V 2.041 H 8.805 V 0 H 2.235 V -17.527 H 0 Z" /></g><g
           transform="translate(98.5977,134.4014)"
           id="g76"><path
             id="path78"
             style="fill:none;stroke:#1d1d1b;stroke-width:1.05499995;stroke-linecap:butt;stroke-linejoin:miter;stroke-miterlimit:10;stroke-dasharray:none;stroke-opacity:1"
             d="M 0,0 H -6.57 V 2.041 H 8.805 V 0 H 2.235 V -17.527 H 0 Z" /></g><g
           transform="translate(121.7134,124.0303)"
           id="g80"><path
             id="path82"
             style="fill:#ffffff;fill-opacity:1;fill-rule:nonzero;stroke:none"
             d="M 0,0 -4.444,9.98 -8.918,0 Z m -5.451,12.552 h 2.069 L 5.536,-7.157 H 3.158 l -2.292,5.172 h -10.65 l -2.32,-5.172 h -2.265 z" /></g><g
           transform="translate(121.7134,124.0303)"
           id="g84"><path
             id="path86"
             style="fill:#1d1d1b;fill-opacity:1;fill-rule:nonzero;stroke:none"
             d="M 0,0 -4.444,9.98 -8.918,0 Z m -5.451,12.552 h 2.069 L 5.536,-7.157 H 3.158 l -2.292,5.172 h -10.65 l -2.32,-5.172 h -2.265 z" /></g><g
           transform="translate(121.7134,124.0303)"
           id="g88"><path
             id="path90"
             style="fill:none;stroke:#1d1d1b;stroke-width:1.05499995;stroke-linecap:butt;stroke-linejoin:miter;stroke-miterlimit:10;stroke-dasharray:none;stroke-opacity:1"
             d="M 0,0 -4.444,9.98 -8.918,0 Z m -5.451,12.552 h 2.069 L 5.536,-7.157 H 3.158 l -2.292,5.172 h -10.65 l -2.32,-5.172 h -2.265 z" /></g><g
           transform="translate(130.0952,125.0645)"
           id="g92"><path
             id="path94"
             style="fill:#ffffff;fill-opacity:1;fill-rule:nonzero;stroke:none"
             d="M 0,0 V 11.379 H 2.209 V 0.141 c 0,-4.223 2.235,-6.598 5.982,-6.598 3.606,0 5.898,2.179 5.898,6.457 v 11.379 h 2.208 V 0.168 c 0,-5.704 -3.27,-8.666 -8.161,-8.666 C 3.299,-8.498 0,-5.536 0,0" /></g><g
           transform="translate(130.0952,125.0645)"
           id="g96"><path
             id="path98"
             style="fill:#1d1d1b;fill-opacity:1;fill-rule:nonzero;stroke:none"
             d="M 0,0 V 11.379 H 2.209 V 0.141 c 0,-4.223 2.235,-6.598 5.982,-6.598 3.606,0 5.898,2.179 5.898,6.457 v 11.379 h 2.208 V 0.168 c 0,-5.704 -3.27,-8.666 -8.161,-8.666 C 3.299,-8.498 0,-5.536 0,0" /></g><g
           transform="translate(130.0952,125.0645)"
           id="g100"><path
             id="path102"
             style="fill:none;stroke:#1d1d1b;stroke-width:1.05499995;stroke-linecap:butt;stroke-linejoin:miter;stroke-miterlimit:10;stroke-dasharray:none;stroke-opacity:1"
             d="M 0,0 V 11.379 H 2.209 V 0.141 c 0,-4.223 2.235,-6.598 5.982,-6.598 3.606,0 5.898,2.179 5.898,6.457 v 11.379 h 2.208 V 0.168 c 0,-5.704 -3.27,-8.666 -8.161,-8.666 C 3.299,-8.498 0,-5.536 0,0 Z" /></g><g
           transform="translate(159.8354,126.4619)"
           id="g104"><path
             id="path106"
             style="fill:#ffffff;fill-opacity:1;fill-rule:nonzero;stroke:none"
             d="m 0,0 c 2.934,0 5.032,1.51 5.032,4.026 v 0.056 c 0,2.403 -1.846,3.857 -5.004,3.857 H -6.011 L -6.011,0 Z M -8.219,9.98 H 0.196 C 2.6,9.98 4.527,9.253 5.758,8.022 6.708,7.074 7.268,5.703 7.268,4.165 V 4.109 c 0,-3.241 -2.236,-5.143 -5.312,-5.702 L 7.967,-9.587 H 5.254 l -5.674,7.604 h -5.591 v -7.604 h -2.208 z" /></g><g
           transform="translate(159.8354,126.4619)"
           id="g108"><path
             id="path110"
             style="fill:#1d1d1b;fill-opacity:1;fill-rule:nonzero;stroke:none"
             d="m 0,0 c 2.934,0 5.032,1.51 5.032,4.026 v 0.056 c 0,2.403 -1.846,3.857 -5.004,3.857 H -6.011 L -6.011,0 Z M -8.219,9.98 H 0.196 C 2.6,9.98 4.527,9.253 5.758,8.022 6.708,7.074 7.268,5.703 7.268,4.165 V 4.109 c 0,-3.241 -2.236,-5.143 -5.312,-5.702 L 7.967,-9.587 H 5.254 l -5.674,7.604 h -5.591 v -7.604 h -2.208 z" /></g><g
           transform="translate(159.8354,126.4619)"
           id="g112"><path
             id="path114"
             style="fill:none;stroke:#1d1d1b;stroke-width:1.05499995;stroke-linecap:butt;stroke-linejoin:miter;stroke-miterlimit:10;stroke-dasharray:none;stroke-opacity:1"
             d="m 0,0 c 2.934,0 5.032,1.51 5.032,4.026 v 0.056 c 0,2.403 -1.846,3.857 -5.004,3.857 H -6.011 L -6.011,0 Z M -8.219,9.98 H 0.196 C 2.6,9.98 4.527,9.253 5.758,8.022 6.708,7.074 7.268,5.703 7.268,4.165 V 4.109 c 0,-3.241 -2.236,-5.143 -5.312,-5.702 L 7.967,-9.587 H 5.254 l -5.674,7.604 h -5.591 v -7.604 h -2.208 z" /></g><g
           transform="translate(184.5151,124.0303)"
           id="g116"><path
             id="path118"
             style="fill:#ffffff;fill-opacity:1;fill-rule:nonzero;stroke:none"
             d="M 0,0 -4.444,9.98 -8.918,0 Z m -5.451,12.552 h 2.067 L 5.536,-7.157 H 3.158 l -2.292,5.172 h -10.65 l -2.32,-5.172 h -2.265 z" /></g><g
           transform="translate(184.5151,124.0303)"
           id="g120"><path
             id="path122"
             style="fill:#1d1d1b;fill-opacity:1;fill-rule:nonzero;stroke:none"
             d="M 0,0 -4.444,9.98 -8.918,0 Z m -5.451,12.552 h 2.067 L 5.536,-7.157 H 3.158 l -2.292,5.172 h -10.65 l -2.32,-5.172 h -2.265 z" /></g><g
           transform="translate(184.5151,124.0303)"
           id="g124"><path
             id="path126"
             style="fill:none;stroke:#1d1d1b;stroke-width:1.05499995;stroke-linecap:butt;stroke-linejoin:miter;stroke-miterlimit:10;stroke-dasharray:none;stroke-opacity:1"
             d="M 0,0 -4.444,9.98 -8.918,0 Z m -5.451,12.552 h 2.067 L 5.536,-7.157 H 3.158 l -2.292,5.172 h -10.65 l -2.32,-5.172 h -2.265 z" /></g><g
           transform="translate(193.9033,136.4419)"
           id="g128"><path
             id="path130"
             style="fill:#ffffff;fill-opacity:1;fill-rule:nonzero;stroke:none"
             d="M 0,0 H 2.068 L 14.396,-15.682 V 0 h 2.152 V -19.567 H 14.789 L 2.152,-3.522 V -19.567 H 0 Z" /></g><g
           transform="translate(193.9033,136.4419)"
           id="g132"><path
             id="path134"
             style="fill:#1d1d1b;fill-opacity:1;fill-rule:nonzero;stroke:none"
             d="M 0,0 H 2.068 L 14.396,-15.682 V 0 h 2.152 V -19.567 H 14.789 L 2.152,-3.522 V -19.567 H 0 Z" /></g><g
           transform="translate(193.9033,136.4419)"
           id="g136"><path
             id="path138"
             style="fill:none;stroke:#1d1d1b;stroke-width:1.05499995;stroke-linecap:butt;stroke-linejoin:miter;stroke-miterlimit:10;stroke-dasharray:none;stroke-opacity:1"
             d="M 0,0 H 2.068 L 14.396,-15.682 V 0 h 2.152 V -19.567 H 14.789 L 2.152,-3.522 V -19.567 H 0 Z" /></g><g
           transform="translate(221.1548,134.4014)"
           id="g140"><path
             id="path142"
             style="fill:#ffffff;fill-opacity:1;fill-rule:nonzero;stroke:none"
             d="M 0,0 H -6.57 V 2.041 H 8.805 V 0 H 2.235 V -17.527 H 0 Z" /></g><g
           transform="translate(221.1548,134.4014)"
           id="g144"><path
             id="path146"
             style="fill:#1d1d1b;fill-opacity:1;fill-rule:nonzero;stroke:none"
             d="M 0,0 H -6.57 V 2.041 H 8.805 V 0 H 2.235 V -17.527 H 0 Z" /></g><g
           transform="translate(221.1548,134.4014)"
           id="g148"><path
             id="path150"
             style="fill:none;stroke:#1d1d1b;stroke-width:1.05499995;stroke-linecap:butt;stroke-linejoin:miter;stroke-miterlimit:10;stroke-dasharray:none;stroke-opacity:1"
             d="M 0,0 H -6.57 V 2.041 H 8.805 V 0 H 2.235 V -17.527 H 0 Z" /></g><g
           transform="translate(36.644,79.9922)"
           id="g152"><path
             id="path154"
             style="fill:#ffffff;fill-opacity:1;fill-rule:nonzero;stroke:none"
             d="M 0,0 H 23.216 V -3.302 H 3.625 v -10.969 h 17.527 v -3.302 H 3.625 v -11.242 h 19.821 v -3.303 H 0 Z" /></g><g
           transform="translate(36.644,79.9922)"
           id="g156"><path
             id="path158"
             style="fill:#1d1d1b;fill-opacity:1;fill-rule:nonzero;stroke:none"
             d="M 0,0 H 23.216 V -3.302 H 3.625 v -10.969 h 17.527 v -3.302 H 3.625 v -11.242 h 19.821 v -3.303 H 0 Z" /></g><g
           transform="translate(36.644,79.9922)"
           id="g160"><path
             id="path162"
             style="fill:none;stroke:#1d1d1b;stroke-width:1.05499995;stroke-linecap:butt;stroke-linejoin:miter;stroke-miterlimit:10;stroke-dasharray:none;stroke-opacity:1"
             d="M 0,0 H 23.216 V -3.302 H 3.625 v -10.969 h 17.527 v -3.302 H 3.625 v -11.242 h 19.821 v -3.303 H 0 Z" /></g><g
           transform="translate(66.8789,61.3179)"
           id="g164"><path
             id="path166"
             style="fill:#ffffff;fill-opacity:1;fill-rule:nonzero;stroke:none"
             d="M 0,0 V 18.674 H 3.625 V 0.229 c 0,-6.927 3.67,-10.827 9.818,-10.827 5.919,0 9.681,3.578 9.681,10.598 v 18.674 h 3.625 V 0.276 c 0,-9.36 -5.368,-14.225 -13.396,-14.225 C 5.414,-13.949 0,-9.084 0,0" /></g><g
           transform="translate(66.8789,61.3179)"
           id="g168"><path
             id="path170"
             style="fill:#1d1d1b;fill-opacity:1;fill-rule:nonzero;stroke:none"
             d="M 0,0 V 18.674 H 3.625 V 0.229 c 0,-6.927 3.67,-10.827 9.818,-10.827 5.919,0 9.681,3.578 9.681,10.598 v 18.674 h 3.625 V 0.276 c 0,-9.36 -5.368,-14.225 -13.396,-14.225 C 5.414,-13.949 0,-9.084 0,0" /></g><g
           transform="translate(66.8789,61.3179)"
           id="g172"><path
             id="path174"
             style="fill:none;stroke:#1d1d1b;stroke-width:1.05499995;stroke-linecap:butt;stroke-linejoin:miter;stroke-miterlimit:10;stroke-dasharray:none;stroke-opacity:1"
             d="M 0,0 V 18.674 H 3.625 V 0.229 c 0,-6.927 3.67,-10.827 9.818,-10.827 5.919,0 9.681,3.578 9.681,10.598 v 18.674 h 3.625 V 0.276 c 0,-9.36 -5.368,-14.225 -13.396,-14.225 C 5.414,-13.949 0,-9.084 0,0 Z" /></g><g
           transform="translate(115.6953,63.6123)"
           id="g176"><path
             id="path178"
             style="fill:#1d1d1b;fill-opacity:1;fill-rule:nonzero;stroke:none"
             d="m 0,0 c 4.818,0 8.259,2.477 8.259,6.607 v 0.092 c 0,3.945 -3.029,6.332 -8.213,6.332 H -9.865 L -9.865,0 Z M -13.49,16.38 H 0.322 c 3.945,0 7.11,-1.193 9.129,-3.212 1.56,-1.56 2.479,-3.808 2.479,-6.332 V 6.744 c 0,-5.321 -3.671,-8.441 -8.718,-9.359 l 9.863,-13.123 h -4.45 l -9.313,12.48 h -9.177 v -12.48 h -3.625 z" /></g><g
           transform="translate(115.6953,63.6123)"
           id="g180"><path
             id="path182"
             style="fill:none;stroke:#1d1d1b;stroke-width:1;stroke-linecap:butt;stroke-linejoin:miter;stroke-miterlimit:10;stroke-dasharray:none;stroke-opacity:1"
             d="m 0,0 c 4.818,0 8.259,2.477 8.259,6.607 v 0.092 c 0,3.945 -3.029,6.332 -8.213,6.332 H -9.865 L -9.865,0 Z M -13.49,16.38 H 0.322 c 3.945,0 7.11,-1.193 9.129,-3.212 1.56,-1.56 2.479,-3.808 2.479,-6.332 V 6.744 c 0,-5.321 -3.671,-8.441 -8.718,-9.359 l 9.863,-13.123 h -4.45 l -9.313,12.48 h -9.177 v -12.48 h -3.625 z" /></g><g
           transform="translate(115.6953,63.6123)"
           id="g184"><path
             id="path186"
             style="fill:none;stroke:#1d1d1b;stroke-width:1.05499995;stroke-linecap:butt;stroke-linejoin:miter;stroke-miterlimit:10;stroke-dasharray:none;stroke-opacity:1"
             d="m 0,0 c 4.818,0 8.259,2.477 8.259,6.607 v 0.092 c 0,3.945 -3.029,6.332 -8.213,6.332 H -9.865 L -9.865,0 Z M -13.49,16.38 H 0.322 c 3.945,0 7.11,-1.193 9.129,-3.212 1.56,-1.56 2.479,-3.808 2.479,-6.332 V 6.744 c 0,-5.321 -3.671,-8.441 -8.718,-9.359 l 9.863,-13.123 h -4.45 l -9.313,12.48 h -9.177 v -12.48 h -3.625 z" /></g><g
           transform="translate(162.9521,63.8418)"
           id="g188"><path
             id="path190"
             style="fill:#ffffff;fill-opacity:1;fill-rule:nonzero;stroke:none"
             d="m 0,0 v 0.092 c 0,7.296 -5.321,13.259 -12.665,13.259 -7.339,0 -12.57,-5.872 -12.57,-13.168 V 0.092 c 0,-7.295 5.323,-13.26 12.663,-13.26 C -5.23,-13.168 0,-7.295 0,0 m -28.999,0 v 0.092 c 0,8.856 6.654,16.61 16.427,16.61 9.773,0 16.333,-7.664 16.333,-16.519 V 0.092 c 0,-8.855 -6.651,-16.609 -16.426,-16.609 -9.772,0 -16.334,7.662 -16.334,16.517" /></g><g
           transform="translate(162.9521,63.8418)"
           id="g192"><path
             id="path194"
             style="fill:#1d1d1b;fill-opacity:1;fill-rule:nonzero;stroke:none"
             d="m 0,0 v 0.092 c 0,7.296 -5.321,13.259 -12.665,13.259 -7.339,0 -12.57,-5.872 -12.57,-13.168 V 0.092 c 0,-7.295 5.323,-13.26 12.663,-13.26 C -5.23,-13.168 0,-7.295 0,0 m -28.999,0 v 0.092 c 0,8.856 6.654,16.61 16.427,16.61 9.773,0 16.333,-7.664 16.333,-16.519 V 0.092 c 0,-8.855 -6.651,-16.609 -16.426,-16.609 -9.772,0 -16.334,7.662 -16.334,16.517" /></g><g
           transform="translate(162.9521,63.8418)"
           id="g196"><path
             id="path198"
             style="fill:none;stroke:#1d1d1b;stroke-width:1.05499995;stroke-linecap:butt;stroke-linejoin:miter;stroke-miterlimit:10;stroke-dasharray:none;stroke-opacity:1"
             d="m 0,0 v 0.092 c 0,7.296 -5.321,13.259 -12.665,13.259 -7.339,0 -12.57,-5.872 -12.57,-13.168 V 0.092 c 0,-7.295 5.323,-13.26 12.663,-13.26 C -5.23,-13.168 0,-7.295 0,0 Z m -28.999,0 v 0.092 c 0,8.856 6.654,16.61 16.427,16.61 9.773,0 16.333,-7.664 16.333,-16.519 V 0.092 c 0,-8.855 -6.651,-16.609 -16.426,-16.609 -9.772,0 -16.334,7.662 -16.334,16.517 z" /></g><g
           transform="translate(185.936,62.5112)"
           id="g200"><path
             id="path202"
             style="fill:#ffffff;fill-opacity:1;fill-rule:nonzero;stroke:none"
             d="m 0,0 c 5.321,0 8.811,2.844 8.811,7.066 v 0.092 c 0,4.589 -3.442,6.974 -8.628,6.974 h -8.12 L -7.937,0 Z M -11.562,17.48 H 0.459 c 7.249,0 12.02,-3.854 12.02,-10.185 V 7.203 C 12.479,0.275 6.7,-3.303 -0.137,-3.303 h -7.8 v -11.334 h -3.625 z" /></g><g
           transform="translate(185.936,62.5112)"
           id="g204"><path
             id="path206"
             style="fill:#1d1d1b;fill-opacity:1;fill-rule:nonzero;stroke:none"
             d="m 0,0 c 5.321,0 8.811,2.844 8.811,7.066 v 0.092 c 0,4.589 -3.442,6.974 -8.628,6.974 h -8.12 L -7.937,0 Z M -11.562,17.48 H 0.459 c 7.249,0 12.02,-3.854 12.02,-10.185 V 7.203 C 12.479,0.275 6.7,-3.303 -0.137,-3.303 h -7.8 v -11.334 h -3.625 z" /></g><g
           transform="translate(185.936,62.5112)"
           id="g208"><path
             id="path210"
             style="fill:none;stroke:#1d1d1b;stroke-width:1.05499995;stroke-linecap:butt;stroke-linejoin:miter;stroke-miterlimit:10;stroke-dasharray:none;stroke-opacity:1"
             d="m 0,0 c 5.321,0 8.811,2.844 8.811,7.066 v 0.092 c 0,4.589 -3.442,6.974 -8.628,6.974 h -8.12 L -7.937,0 Z M -11.562,17.48 H 0.459 c 7.249,0 12.02,-3.854 12.02,-10.185 V 7.203 C 12.479,0.275 6.7,-3.303 -0.137,-3.303 h -7.8 v -11.334 h -3.625 z" /></g><g
           transform="translate(205.021,79.9922)"
           id="g212"><path
             id="path214"
             style="fill:#ffffff;fill-opacity:1;fill-rule:nonzero;stroke:none"
             d="M 0,0 H 23.216 V -3.302 H 3.625 v -10.969 h 17.527 v -3.302 H 3.625 v -11.242 h 19.821 v -3.303 H 0 Z" /></g><g
           transform="translate(205.021,79.9922)"
           id="g216"><path
             id="path218"
             style="fill:#1d1d1b;fill-opacity:1;fill-rule:nonzero;stroke:none"
             d="M 0,0 H 23.216 V -3.302 H 3.625 v -10.969 h 17.527 v -3.302 H 3.625 v -11.242 h 19.821 v -3.303 H 0 Z" /></g><g
           transform="translate(205.021,79.9922)"
           id="g220"><path
             id="path222"
             style="fill:none;stroke:#1d1d1b;stroke-width:1.05499995;stroke-linecap:butt;stroke-linejoin:miter;stroke-miterlimit:10;stroke-dasharray:none;stroke-opacity:1"
             d="M 0,0 H 23.216 V -3.302 H 3.625 v -10.969 h 17.527 v -3.302 H 3.625 v -11.242 h 19.821 v -3.303 H 0 Z" /></g><g
           transform="translate(36.3267,98.1113)"
           id="g224"><path
             id="path226"
             style="fill:#ffffff;fill-opacity:1;fill-rule:nonzero;stroke:none"
             d="m 0,0 v 0.074 c 0,7.31 5.463,13.364 13.068,13.364 4.688,0 7.495,-1.66 10.08,-4.098 L 21.153,7.199 C 18.976,9.266 16.539,10.742 13.031,10.742 7.31,10.742 3.027,6.093 3.027,0.148 V 0.074 c 0,-5.982 4.32,-10.67 10.004,-10.67 3.545,0 5.87,1.367 8.344,3.728 L 23.296,-8.75 C 20.6,-11.482 17.645,-13.29 12.958,-13.29 5.5,-13.29 0,-7.421 0,0" /></g><g
           transform="translate(36.3267,98.1113)"
           id="g228"><path
             id="path230"
             style="fill:#1d1d1b;fill-opacity:1;fill-rule:nonzero;stroke:none"
             d="m 0,0 v 0.074 c 0,7.31 5.463,13.364 13.068,13.364 4.688,0 7.495,-1.66 10.08,-4.098 L 21.153,7.199 C 18.976,9.266 16.539,10.742 13.031,10.742 7.31,10.742 3.027,6.093 3.027,0.148 V 0.074 c 0,-5.982 4.32,-10.67 10.004,-10.67 3.545,0 5.87,1.367 8.344,3.728 L 23.296,-8.75 C 20.6,-11.482 17.645,-13.29 12.958,-13.29 5.5,-13.29 0,-7.421 0,0" /></g><g
           transform="translate(36.3267,98.1113)"
           id="g232"><path
             id="path234"
             style="fill:none;stroke:#1d1d1b;stroke-width:1.05499995;stroke-linecap:butt;stroke-linejoin:miter;stroke-miterlimit:10;stroke-dasharray:none;stroke-opacity:1"
             d="m 0,0 v 0.074 c 0,7.31 5.463,13.364 13.068,13.364 4.688,0 7.495,-1.66 10.08,-4.098 L 21.153,7.199 C 18.976,9.266 16.539,10.742 13.031,10.742 7.31,10.742 3.027,6.093 3.027,0.148 V 0.074 c 0,-5.982 4.32,-10.67 10.004,-10.67 3.545,0 5.87,1.367 8.344,3.728 L 23.296,-8.75 C 20.6,-11.482 17.645,-13.29 12.958,-13.29 5.5,-13.29 0,-7.421 0,0 Z" /></g><g
           transform="translate(86.1631,98.1113)"
           id="g236"><path
             id="path238"
             style="fill:#ffffff;fill-opacity:1;fill-rule:nonzero;stroke:none"
             d="m 0,0 v 0.074 c 0,5.871 -4.281,10.668 -10.189,10.668 -5.906,0 -10.117,-4.723 -10.117,-10.594 V 0.074 c 0,-5.871 4.283,-10.67 10.191,-10.67 C -4.208,-10.596 0,-5.869 0,0 m -23.333,0 v 0.074 c 0,7.125 5.353,13.364 13.218,13.364 7.864,0 13.144,-6.165 13.144,-13.29 V 0.074 c 0,-7.125 -5.355,-13.364 -13.218,-13.364 -7.863,0 -13.144,6.165 -13.144,13.29" /></g><g
           transform="translate(86.1631,98.1113)"
           id="g240"><path
             id="path242"
             style="fill:#1d1d1b;fill-opacity:1;fill-rule:nonzero;stroke:none"
             d="m 0,0 v 0.074 c 0,5.871 -4.281,10.668 -10.189,10.668 -5.906,0 -10.117,-4.723 -10.117,-10.594 V 0.074 c 0,-5.871 4.283,-10.67 10.191,-10.67 C -4.208,-10.596 0,-5.869 0,0 m -23.333,0 v 0.074 c 0,7.125 5.353,13.364 13.218,13.364 7.864,0 13.144,-6.165 13.144,-13.29 V 0.074 c 0,-7.125 -5.355,-13.364 -13.218,-13.364 -7.863,0 -13.144,6.165 -13.144,13.29" /></g><g
           transform="translate(86.1631,98.1113)"
           id="g244"><path
             id="path246"
             style="fill:none;stroke:#1d1d1b;stroke-width:1.05499995;stroke-linecap:butt;stroke-linejoin:miter;stroke-miterlimit:10;stroke-dasharray:none;stroke-opacity:1"
             d="m 0,0 v 0.074 c 0,5.871 -4.281,10.668 -10.189,10.668 -5.906,0 -10.117,-4.723 -10.117,-10.594 V 0.074 c 0,-5.871 4.283,-10.67 10.191,-10.67 C -4.208,-10.596 0,-5.869 0,0 Z m -23.333,0 v 0.074 c 0,7.125 5.353,13.364 13.218,13.364 7.864,0 13.144,-6.165 13.144,-13.29 V 0.074 c 0,-7.125 -5.355,-13.364 -13.218,-13.364 -7.863,0 -13.144,6.165 -13.144,13.29 z" /></g><g
           transform="translate(95.3521,111.1064)"
           id="g248"><path
             id="path250"
             style="fill:#ffffff;fill-opacity:1;fill-rule:nonzero;stroke:none"
             d="M 0,0 H 2.953 L 12.367,-14.102 21.783,0 h 2.953 V -25.842 H 21.82 V -4.91 L 12.404,-18.755 H 12.256 L 2.842,-4.947 V -25.842 H 0 Z" /></g><g
           transform="translate(95.3521,111.1064)"
           id="g252"><path
             id="path254"
             style="fill:#1d1d1b;fill-opacity:1;fill-rule:nonzero;stroke:none"
             d="M 0,0 H 2.953 L 12.367,-14.102 21.783,0 h 2.953 V -25.842 H 21.82 V -4.91 L 12.404,-18.755 H 12.256 L 2.842,-4.947 V -25.842 H 0 Z" /></g><g
           transform="translate(95.3521,111.1064)"
           id="g256"><path
             id="path258"
             style="fill:none;stroke:#1d1d1b;stroke-width:1.05499995;stroke-linecap:butt;stroke-linejoin:miter;stroke-miterlimit:10;stroke-dasharray:none;stroke-opacity:1"
             d="M 0,0 H 2.953 L 12.367,-14.102 21.783,0 h 2.953 V -25.842 H 21.82 V -4.91 L 12.404,-18.755 H 12.256 L 2.842,-4.947 V -25.842 H 0 Z" /></g><g
           transform="translate(136.6973,97.041)"
           id="g260"><path
             id="path262"
             style="fill:#ffffff;fill-opacity:1;fill-rule:nonzero;stroke:none"
             d="m 0,0 c 4.283,0 7.088,2.289 7.088,5.686 v 0.073 c 0,3.692 -2.768,5.612 -6.94,5.612 H -6.387 L -6.387,0 Z M -9.303,14.065 H 0.37 c 5.832,0 9.671,-3.101 9.671,-8.194 V 5.796 c 0,-5.574 -4.651,-8.455 -10.152,-8.455 h -6.276 v -9.118 h -2.916 z" /></g><g
           transform="translate(136.6973,97.041)"
           id="g264"><path
             id="path266"
             style="fill:#1d1d1b;fill-opacity:1;fill-rule:nonzero;stroke:none"
             d="m 0,0 c 4.283,0 7.088,2.289 7.088,5.686 v 0.073 c 0,3.692 -2.768,5.612 -6.94,5.612 H -6.387 L -6.387,0 Z M -9.303,14.065 H 0.37 c 5.832,0 9.671,-3.101 9.671,-8.194 V 5.796 c 0,-5.574 -4.651,-8.455 -10.152,-8.455 h -6.276 v -9.118 h -2.916 z" /></g><g
           transform="translate(136.6973,97.041)"
           id="g268"><path
             id="path270"
             style="fill:none;stroke:#1d1d1b;stroke-width:1.05499995;stroke-linecap:butt;stroke-linejoin:miter;stroke-miterlimit:10;stroke-dasharray:none;stroke-opacity:1"
             d="m 0,0 c 4.283,0 7.088,2.289 7.088,5.686 v 0.073 c 0,3.692 -2.768,5.612 -6.94,5.612 H -6.387 L -6.387,0 Z M -9.303,14.065 H 0.37 c 5.832,0 9.671,-3.101 9.671,-8.194 V 5.796 c 0,-5.574 -4.651,-8.455 -10.152,-8.455 h -6.276 v -9.118 h -2.916 z" /></g><g
           transform="translate(166.23,94.7148)"
           id="g272"><path
             id="path274"
             style="fill:#ffffff;fill-opacity:1;fill-rule:nonzero;stroke:none"
             d="M 0,0 -5.869,13.179 -11.777,0 Z m -7.199,16.576 h 2.732 L 7.31,-9.451 H 4.172 l -3.029,6.829 h -14.065 l -3.064,-6.829 h -2.99 z" /></g><g
           transform="translate(166.23,94.7148)"
           id="g276"><path
             id="path278"
             style="fill:#1d1d1b;fill-opacity:1;fill-rule:nonzero;stroke:none"
             d="M 0,0 -5.869,13.179 -11.777,0 Z m -7.199,16.576 h 2.732 L 7.31,-9.451 H 4.172 l -3.029,6.829 h -14.065 l -3.064,-6.829 h -2.99 z" /></g><g
           transform="translate(166.23,94.7148)"
           id="g280"><path
             id="path282"
             style="fill:none;stroke:#1d1d1b;stroke-width:1.05499995;stroke-linecap:butt;stroke-linejoin:miter;stroke-miterlimit:10;stroke-dasharray:none;stroke-opacity:1"
             d="M 0,0 -5.869,13.179 -11.777,0 Z m -7.199,16.576 h 2.732 L 7.31,-9.451 H 4.172 l -3.029,6.829 h -14.065 l -3.064,-6.829 h -2.99 z" /></g><g
           transform="translate(178.6313,111.1064)"
           id="g284"><path
             id="path286"
             style="fill:#ffffff;fill-opacity:1;fill-rule:nonzero;stroke:none"
             d="M 0,0 H 2.731 L 19.013,-20.711 V 0 h 2.841 V -25.842 H 19.531 L 2.842,-4.651 V -25.842 H 0 Z" /></g><g
           transform="translate(178.6313,111.1064)"
           id="g288"><path
             id="path290"
             style="fill:#1d1d1b;fill-opacity:1;fill-rule:nonzero;stroke:none"
             d="M 0,0 H 2.731 L 19.013,-20.711 V 0 h 2.841 V -25.842 H 19.531 L 2.842,-4.651 V -25.842 H 0 Z" /></g><g
           transform="translate(178.6313,111.1064)"
           id="g292"><path
             id="path294"
             style="fill:none;stroke:#1d1d1b;stroke-width:1.05499995;stroke-linecap:butt;stroke-linejoin:miter;stroke-miterlimit:10;stroke-dasharray:none;stroke-opacity:1"
             d="M 0,0 H 2.731 L 19.013,-20.711 V 0 h 2.841 V -25.842 H 19.531 L 2.842,-4.651 V -25.842 H 0 Z" /></g><g
           transform="translate(215.8789,95.4902)"
           id="g296"><path
             id="path298"
             style="fill:#ffffff;fill-opacity:1;fill-rule:nonzero;stroke:none"
             d="m 0,0 -10.742,15.618 h 3.543 L 1.514,2.696 10.3,15.618 h 3.397 L 2.953,0.037 V -10.226 H 0 Z" /></g><g
           transform="translate(215.8789,95.4902)"
           id="g300"><path
             id="path302"
             style="fill:#1d1d1b;fill-opacity:1;fill-rule:nonzero;stroke:none"
             d="m 0,0 -10.742,15.618 h 3.543 L 1.514,2.696 10.3,15.618 h 3.397 L 2.953,0.037 V -10.226 H 0 Z" /></g><g
           transform="translate(215.8789,95.4902)"
           id="g304"><path
             id="path306"
             style="fill:none;stroke:#1d1d1b;stroke-width:1.05499995;stroke-linecap:butt;stroke-linejoin:miter;stroke-miterlimit:10;stroke-dasharray:none;stroke-opacity:1"
             d="m 0,0 -10.742,15.618 h 3.543 L 1.514,2.696 10.3,15.618 h 3.397 L 2.953,0.037 V -10.226 H 0 Z" /></g></g></g><g
       transform="translate(23.7959,54.4395)"
       id="g308"><path
         id="path310"
         style="fill:none;stroke:#1d1d1b;stroke-width:3;stroke-linecap:butt;stroke-linejoin:miter;stroke-miterlimit:4;stroke-dasharray:none;stroke-opacity:1"
         d="M 0,0 V -18.992 H 217.701 V 0" /></g><g
       transform="translate(241.4966,120.2031)"
       id="g312"><path
         id="path314"
         style="fill:none;stroke:#1d1d1b;stroke-width:3;stroke-linecap:butt;stroke-linejoin:miter;stroke-miterlimit:4;stroke-dasharray:none;stroke-opacity:1"
         d="M 0,0 V 28.63 H -217.701 V 0" /></g></g></svg>